<svg width="16" height="14" viewBox="0 0 16 14" fill="none" xmlns="http://www.w3.org/2000/svg">
<path fill-rule="evenodd" clip-rule="evenodd" d="M7.10058 0.667311C7.37515 0.512728 7.68492 0.431519 8.00001 0.431519C8.31511 0.431519 8.62488 0.512728 8.89944 0.667311C9.17401 0.821893 9.4041 1.04463 9.56751 1.31403L9.56896 1.31641L15.2197 10.75C15.3798 11.0272 15.4645 11.3415 15.4654 11.6616C15.4662 11.9817 15.3833 12.2965 15.2248 12.5746C15.0663 12.8527 14.8377 13.0845 14.5618 13.2468C14.2859 13.4092 13.9723 13.4965 13.6522 13.5L13.6467 13.5L2.34785 13.5C2.02775 13.4965 1.71415 13.4092 1.43825 13.2468C1.16235 13.0845 0.933767 12.8527 0.775243 12.5746C0.616719 12.2965 0.533779 11.9817 0.534675 11.6616C0.535571 11.3415 0.620273 11.0272 0.780352 10.75L0.784358 10.743L6.43108 1.31641L6.43251 1.31403C6.59593 1.04463 6.82602 0.821893 7.10058 0.667311ZM8.00001 1.43152C7.85679 1.43152 7.71599 1.46843 7.59118 1.5387C7.46673 1.60876 7.36239 1.70963 7.28815 1.83162C7.28794 1.83197 7.28772 1.83231 7.28751 1.83266L1.64458 11.2531C1.57296 11.3784 1.53508 11.5201 1.53467 11.6644C1.53426 11.8099 1.57196 11.953 1.64402 12.0794C1.71608 12.2058 1.81998 12.3112 1.94539 12.385C2.07009 12.4584 2.21174 12.498 2.35639 12.5H13.6436C13.7883 12.498 13.9299 12.4584 14.0546 12.385C14.18 12.3112 14.284 12.2058 14.356 12.0794C14.4281 11.953 14.4658 11.8099 14.4654 11.6644C14.465 11.5201 14.4271 11.3784 14.3554 11.2531L8.71251 1.83266C8.7123 1.83231 8.71209 1.83197 8.71188 1.83162C8.63764 1.70963 8.53329 1.60876 8.40885 1.5387C8.28404 1.46843 8.14324 1.43152 8.00001 1.43152ZM7.99994 4.50002C8.27608 4.50002 8.49994 4.72388 8.49994 5.00002V7.66669C8.49994 7.94283 8.27608 8.16669 7.99994 8.16669C7.7238 8.16669 7.49994 7.94283 7.49994 7.66669V5.00002C7.49994 4.72388 7.7238 4.50002 7.99994 4.50002ZM7.49994 10.3334C7.49994 10.0572 7.7238 9.83335 7.99994 9.83335H8.00661C8.28275 9.83335 8.50661 10.0572 8.50661 10.3334C8.50661 10.6095 8.28275 10.8334 8.00661 10.8334H7.99994C7.7238 10.8334 7.49994 10.6095 7.49994 10.3334Z" fill="#C93E33"/>
</svg>
