<svg width="14" height="12" viewBox="0 0 14 12" fill="none" xmlns="http://www.w3.org/2000/svg">
<path opacity="0.5" fill-rule="evenodd" clip-rule="evenodd" d="M4.54869 0.632095C4.88938 0.291404 5.35146 0.100006 5.83327 0.100006H8.1666C8.64841 0.100006 9.11049 0.291404 9.45118 0.632095C9.79187 0.972787 9.98327 1.43486 9.98327 1.91667V2.43334H11.6666C12.6699 2.43334 13.4833 3.24669 13.4833 4.25001V10.0833C13.4833 11.0867 12.6699 11.9 11.6666 11.9H2.33327C1.32995 11.9 0.516602 11.0867 0.516602 10.0833V4.25001C0.516602 3.24669 1.32995 2.43334 2.33327 2.43334H4.0166V1.91667C4.0166 1.43486 4.208 0.972786 4.54869 0.632095ZM4.0166 3.73334H2.33327C2.04792 3.73334 1.8166 3.96466 1.8166 4.25001V10.0833C1.8166 10.3687 2.04792 10.6 2.33327 10.6H4.0166V3.73334ZM5.3166 10.6V3.73334H8.68327V10.6H5.3166ZM9.98327 10.6H11.6666C11.952 10.6 12.1833 10.3687 12.1833 10.0833V4.25001C12.1833 3.96466 11.9519 3.73334 11.6666 3.73334H9.98327V10.6ZM8.68327 2.43334H5.3166V1.91667C5.3166 1.77964 5.37104 1.64823 5.46793 1.55133C5.56482 1.45444 5.69624 1.40001 5.83327 1.40001H8.1666C8.30363 1.40001 8.43505 1.45444 8.53194 1.55133C8.62883 1.64823 8.68327 1.77964 8.68327 1.91667V2.43334Z" fill="#C93E33"/>
</svg>
