<svg width="16" height="18" viewBox="0 0 16 18" fill="none" xmlns="http://www.w3.org/2000/svg">
<path fill-rule="evenodd" clip-rule="evenodd" d="M0.5 4.5C0.5 4.08579 0.835786 3.75 1.25 3.75H14.75C15.1642 3.75 15.5 4.08579 15.5 4.5C15.5 4.91421 15.1642 5.25 14.75 5.25H1.25C0.835786 5.25 0.5 4.91421 0.5 4.5Z" fill="#C93E33"/>
<path fill-rule="evenodd" clip-rule="evenodd" d="M6.50002 2.25C6.3011 2.25 6.11034 2.32902 5.96969 2.46967C5.82903 2.61032 5.75002 2.80109 5.75002 3V3.75H10.25V3C10.25 2.80109 10.171 2.61032 10.0303 2.46967C9.88969 2.32902 9.69893 2.25 9.50002 2.25H6.50002ZM11.75 3.75V3C11.75 2.40326 11.513 1.83097 11.091 1.40901C10.6691 0.987053 10.0968 0.75 9.50002 0.75H6.50002C5.90328 0.75 5.33098 0.987053 4.90903 1.40901C4.48707 1.83097 4.25002 2.40326 4.25002 3V3.75H2.75002C2.3358 3.75 2.00002 4.08579 2.00002 4.5V15C2.00002 15.5967 2.23707 16.169 2.65903 16.591C3.08098 17.0129 3.65328 17.25 4.25002 17.25H11.75C12.3468 17.25 12.9191 17.0129 13.341 16.591C13.763 16.169 14 15.5967 14 15V4.5C14 4.08579 13.6642 3.75 13.25 3.75H11.75ZM3.50002 5.25V15C3.50002 15.1989 3.57903 15.3897 3.71969 15.5303C3.86034 15.671 4.0511 15.75 4.25002 15.75H11.75C11.9489 15.75 12.1397 15.671 12.2803 15.5303C12.421 15.3897 12.5 15.1989 12.5 15V5.25H3.50002Z" fill="#C93E33"/>
</svg>
