<svg width="14" height="14" viewBox="0 0 14 14" fill="none" xmlns="http://www.w3.org/2000/svg">
<path fill-rule="evenodd" clip-rule="evenodd" d="M6.99995 5.31666C6.07027 5.31666 5.31661 6.07032 5.31661 7C5.31661 7.92968 6.07027 8.68333 6.99995 8.68333C7.92963 8.68333 8.68328 7.92968 8.68328 7C8.68328 6.07032 7.92963 5.31666 6.99995 5.31666ZM4.01661 7C4.01661 5.35235 5.3523 4.01666 6.99995 4.01666C8.6476 4.01666 9.98328 5.35235 9.98328 7C9.98328 8.64765 8.6476 9.98333 6.99995 9.98333C5.3523 9.98333 4.01661 8.64765 4.01661 7Z" fill="#C93E33"/>
<path fill-rule="evenodd" clip-rule="evenodd" d="M4.22984 1.13862C5.55282 0.513412 7.04839 0.354135 8.47337 0.686683C9.89835 1.01923 11.1689 1.82405 12.0785 2.97026C12.9881 4.11648 13.4832 5.53669 13.4833 6.99996V7.58333C13.4833 8.21985 13.2304 8.8303 12.7803 9.28039C12.3302 9.73048 11.7198 9.98333 11.0833 9.98333C10.4468 9.98333 9.83631 9.73048 9.38622 9.28039C8.93613 8.8303 8.68328 8.21985 8.68328 7.58333V4.66667C8.68328 4.30768 8.97429 4.01667 9.33328 4.01667C9.69226 4.01667 9.98328 4.30768 9.98328 4.66667V7.58333C9.98328 7.87507 10.0992 8.15486 10.3055 8.36115C10.5117 8.56744 10.7915 8.68333 11.0833 8.68333C11.375 8.68333 11.6548 8.56744 11.8611 8.36115C12.0674 8.15486 12.1833 7.87507 12.1833 7.58333V7.00004V7.00004C12.1832 5.83019 11.7874 4.69473 11.0602 3.77836C10.333 2.86197 9.31718 2.21853 8.17793 1.95267C7.03868 1.6868 5.84299 1.81414 4.78528 2.31398C3.72758 2.81382 2.87007 3.65677 2.35218 4.70575C1.83429 5.75474 1.68649 6.94807 1.9328 8.09171C2.17911 9.23535 2.80506 10.262 3.70885 11.0048C4.61265 11.7476 5.74113 12.1628 6.91082 12.1829C8.08051 12.203 9.22261 11.8269 10.1514 11.1156C10.4364 10.8973 10.8444 10.9515 11.0627 11.2365C11.2809 11.5215 11.2268 11.9295 10.9418 12.1477C9.78007 13.0374 8.35153 13.5079 6.88847 13.4827C5.42542 13.4576 4.0139 12.9382 2.88343 12.0092C1.75296 11.0801 0.970032 9.79589 0.661943 8.36542C0.353854 6.93496 0.538727 5.44233 1.1865 4.13026C1.83428 2.81818 2.90686 1.76382 4.22984 1.13862Z" fill="#C93E33"/>
</svg>
