<svg width="32" height="35" viewBox="0 0 32 35" fill="none" xmlns="http://www.w3.org/2000/svg">
<path fill-rule="evenodd" clip-rule="evenodd" d="M0.600098 3.00001C0.600098 1.67452 1.67461 0.600006 3.0001 0.600006H25.0001C26.3256 0.600006 27.4001 1.67452 27.4001 3.00001V19.6282C29.789 20.9869 31.4001 23.5553 31.4001 26.5C31.4001 30.8631 27.8631 34.4 23.5001 34.4C20.9881 34.4 18.7499 33.2275 17.3029 31.4H3.0001C1.67461 31.4 0.600098 30.3255 0.600098 29V3.00001ZM18.362 31.4C19.655 32.7555 21.4789 33.6 23.5001 33.6C27.4213 33.6 30.6001 30.4212 30.6001 26.5C30.6001 24.0192 29.3278 21.8356 27.4001 20.5661V29C27.4001 30.3255 26.3256 31.4 25.0001 31.4H18.362ZM26.6001 20.1107V29C26.6001 29.8837 25.8838 30.6 25.0001 30.6H17.7028C16.8823 29.4419 16.4001 28.0273 16.4001 26.5C16.4001 25.5823 16.5742 24.7052 16.8912 23.9H18.5001C19.004 23.9 19.4873 23.6998 19.8436 23.3435C20.1999 22.9872 20.4001 22.5039 20.4001 22V20.1107C21.3368 19.6554 22.3886 19.4 23.5001 19.4C24.6116 19.4 25.6634 19.6554 26.6001 20.1107ZM26.6001 19.2314V3.00001C26.6001 2.11635 25.8838 1.40001 25.0001 1.40001H3.0001C2.11644 1.40001 1.4001 2.11635 1.4001 3.00001V29C1.4001 29.8837 2.11644 30.6 3.0001 30.6H16.746C16.0189 29.4048 15.6001 28.0013 15.6001 26.5C15.6001 25.5891 15.7543 24.7142 16.0379 23.9H9.50008C8.99617 23.9 8.5129 23.6998 8.15658 23.3435C7.80026 22.9872 7.60008 22.5039 7.60008 22V10C7.60008 9.49609 7.80026 9.01282 8.15658 8.6565C8.5129 8.30018 8.99617 8.10001 9.50008 8.10001H15.5001C15.6062 8.10001 15.7079 8.14215 15.7829 8.21716L20.2829 12.7172C20.3579 12.7922 20.4001 12.8939 20.4001 13V19.2314C21.3519 18.825 22.3997 18.6 23.5001 18.6C24.6005 18.6 25.6483 18.825 26.6001 19.2314ZM19.6001 19.6282V13.4H15.5001C15.2792 13.4 15.1001 13.2209 15.1001 13L15.1001 8.90001H9.50008C9.20834 8.90001 8.92855 9.0159 8.72226 9.22219C8.51597 9.42848 8.40008 9.70827 8.40008 10V22C8.40008 22.2917 8.51597 22.5715 8.72226 22.7778C8.92855 22.9841 9.20834 23.1 9.50008 23.1H16.3671C17.065 21.6386 18.1987 20.4253 19.6001 19.6282ZM17.2656 23.1H18.5001C18.7918 23.1 19.0716 22.9841 19.2779 22.7778C19.4842 22.5715 19.6001 22.2917 19.6001 22V20.5661C18.6295 21.2053 17.8251 22.0762 17.2656 23.1ZM15.9001 9.4657L19.0344 12.6H15.9001L15.9001 9.4657ZM10.6001 13.75C10.6001 13.5291 10.7792 13.35 11.0001 13.35H12.5001C12.721 13.35 12.9001 13.5291 12.9001 13.75C12.9001 13.9709 12.721 14.15 12.5001 14.15H11.0001C10.7792 14.15 10.6001 13.9709 10.6001 13.75ZM10.6001 16.75C10.6001 16.5291 10.7792 16.35 11.0001 16.35H17.0001C17.221 16.35 17.4001 16.5291 17.4001 16.75C17.4001 16.9709 17.221 17.15 17.0001 17.15H11.0001C10.7792 17.15 10.6001 16.9709 10.6001 16.75ZM10.6001 19.75C10.6001 19.5291 10.7792 19.35 11.0001 19.35H17.0001C17.221 19.35 17.4001 19.5291 17.4001 19.75C17.4001 19.9709 17.221 20.15 17.0001 20.15H11.0001C10.7792 20.15 10.6001 19.9709 10.6001 19.75ZM23.5001 23.475C23.721 23.475 23.9001 23.6541 23.9001 23.875L23.9001 26.4093L24.6756 25.6338C24.8318 25.4776 25.0851 25.4776 25.2413 25.6338C25.3975 25.79 25.3975 26.0433 25.2413 26.1995L23.783 27.6578C23.7079 27.7329 23.6062 27.775 23.5001 27.775C23.394 27.775 23.2923 27.7329 23.2173 27.6578L21.7589 26.1995C21.6027 26.0433 21.6027 25.79 21.7589 25.6338C21.9152 25.4776 22.1684 25.4776 22.3246 25.6338L23.1001 26.4093L23.1001 23.875C23.1001 23.6541 23.2792 23.475 23.5001 23.475ZM20.8751 26.975C21.096 26.975 21.2751 27.1541 21.2751 27.375V28.5417C21.2751 28.5903 21.2944 28.6369 21.3288 28.6713C21.3632 28.7057 21.4098 28.725 21.4584 28.725H25.5418C25.5904 28.725 25.637 28.7057 25.6714 28.6713C25.7058 28.6369 25.7251 28.5903 25.7251 28.5417V27.375C25.7251 27.1541 25.9042 26.975 26.1251 26.975C26.346 26.975 26.5251 27.1541 26.5251 27.375V28.5417C26.5251 28.8025 26.4215 29.0526 26.2371 29.237C26.0527 29.4214 25.8026 29.525 25.5418 29.525H21.4584C21.1976 29.525 20.9475 29.4214 20.7631 29.237C20.5787 29.0526 20.4751 28.8025 20.4751 28.5417V27.375C20.4751 27.1541 20.6542 26.975 20.8751 26.975Z" fill="#C93E33"/>
</svg>
