<svg width="12" height="12" viewBox="0 0 12 12" fill="none" xmlns="http://www.w3.org/2000/svg">
<path fill-rule="evenodd" clip-rule="evenodd" d="M1.5569 7.9738C2.11639 7.41432 2.87521 7.10001 3.66644 7.10001H8.3331C9.12433 7.10001 9.88316 7.41432 10.4426 7.9738C11.0021 8.53329 11.3164 9.29211 11.3164 10.0833V11.25C11.3164 11.609 11.0254 11.9 10.6664 11.9C10.3075 11.9 10.0164 11.609 10.0164 11.25V10.0833C10.0164 9.63689 9.83909 9.20873 9.5234 8.89304C9.20771 8.57736 8.77955 8.40001 8.3331 8.40001H3.66644C3.21999 8.40001 2.79183 8.57736 2.47614 8.89304C2.16046 9.20873 1.98311 9.63689 1.98311 10.0833V11.25C1.98311 11.609 1.69209 11.9 1.33311 11.9C0.97412 11.9 0.683105 11.609 0.683105 11.25V10.0833C0.683105 9.29211 0.99742 8.53329 1.5569 7.9738Z" fill="#C93E33"/>
<path fill-rule="evenodd" clip-rule="evenodd" d="M5.99977 1.40001C5.07009 1.40001 4.31644 2.15366 4.31644 3.08334C4.31644 4.01302 5.07009 4.76667 5.99977 4.76667C6.92945 4.76667 7.68311 4.01302 7.68311 3.08334C7.68311 2.15366 6.92945 1.40001 5.99977 1.40001ZM3.01644 3.08334C3.01644 1.43569 4.35212 0.100006 5.99977 0.100006C7.64742 0.100006 8.98311 1.43569 8.98311 3.08334C8.98311 4.73099 7.64742 6.06667 5.99977 6.06667C4.35212 6.06667 3.01644 4.73099 3.01644 3.08334Z" fill="#C93E33"/>
</svg>
